<?xml version="1.0" encoding="UTF-8" standalone="no"?>
<svg width="150px" height="40px" viewBox="0 0 150 40" version="1.1" xmlns="http://www.w3.org/2000/svg" xmlns:xlink="http://www.w3.org/1999/xlink" xmlns:sketch="http://www.bohemiancoding.com/sketch/ns">
    <!-- Generator: Sketch 3.1 (8751) - http://www.bohemiancoding.com/sketch -->
    <title>Icon-Swapsy</title>
    <desc>Created with Sketch.</desc>
    <defs>
        <linearGradient x1="50%" y1="0%" x2="50%" y2="100%" id="linearGradient-1">
            <stop stop-color="#C17CFD" offset="0%"></stop>
            <stop stop-color="#7000D2" offset="100%"></stop>
        </linearGradient>
    </defs>
    <g id="Page-1" stroke="none" stroke-width="1" fill="none" fill-rule="evenodd" sketch:type="MSPage">
        <g id="Icon-Swapsy" sketch:type="MSArtboardGroup" fill="url(#linearGradient-1)">
            <path d="M22.1354167,26.875 C21.2135236,28.3472296 19.86435,29.4999958 18.0878553,30.3333333 C16.3113606,31.1666708 14.2051694,31.5833333 11.7692183,31.5833333 C8.84876877,31.5833333 6.43977047,31.0138946 4.54215116,29.875 C3.19632187,29.0555515 2.10285197,27.9618124 1.26170866,26.59375 C0.420565346,25.2256876 0,23.8958398 0,22.6041667 C0,21.8541629 0.252339208,21.2118082 0.757025194,20.6770833 C1.26171118,20.1423584 1.90433503,19.875 2.68491602,19.875 C3.31745579,19.875 3.85241491,20.0833312 4.28980943,20.5 C4.72720395,20.9166688 5.10066598,21.5347181 5.41020672,22.3541667 C5.78703892,23.3263938 6.19414618,24.1388856 6.6315407,24.7916667 C7.06893522,25.4444477 7.68464289,25.9826368 8.47868217,26.40625 C9.27272146,26.8298632 10.3157235,27.0416667 11.6077196,27.0416667 C13.3842143,27.0416667 14.8275946,26.6145876 15.9379037,25.7604167 C17.0482129,24.9062457 17.6033592,23.8402842 17.6033592,22.5625 C17.6033592,21.548606 17.3039166,20.7256976 16.7050226,20.09375 C16.1061286,19.4618024 15.3322883,18.9791683 14.3834787,18.6458333 C13.434669,18.3124983 12.1662439,17.9583352 10.5781654,17.5833333 C8.45175509,17.0694419 6.67192254,16.4687534 5.23861434,15.78125 C3.80530614,15.0937466 2.66809744,14.1562559 1.82695413,12.96875 C0.985810824,11.7812441 0.565245478,10.3055644 0.565245478,8.54166667 C0.565245478,6.86110271 1.00936248,5.36806208 1.89760982,4.0625 C2.78585715,2.75693792 4.07110485,1.75347573 5.75339147,1.05208333 C7.43567809,0.350690938 9.41401748,0 11.688469,0 C13.5053385,0 15.0765707,0.232636562 16.4022125,0.697916667 C17.7278544,1.16319677 18.8280533,1.78124615 19.7028424,2.55208333 C20.5776314,3.32292052 21.2168907,4.13194021 21.6206395,4.97916667 C22.0243883,5.82639313 22.2262597,6.65277375 22.2262597,7.45833333 C22.2262597,8.19444813 21.9739205,8.85763594 21.4692345,9.44791667 C20.9645485,10.0381974 20.3353828,10.3333333 19.5817183,10.3333333 C18.8953454,10.3333333 18.3738444,10.1562518 18.0171996,9.80208333 C17.6605548,9.4479149 17.2736347,8.86805958 16.8564276,8.0625 C16.3180959,6.90971646 15.6721076,6.0104199 14.9184432,5.36458333 C14.1647787,4.71874677 12.9535505,4.39583333 11.2847222,4.39583333 C9.73701853,4.39583333 8.48878058,4.74652427 7.53997093,5.44791667 C6.59116128,6.14930906 6.11676357,6.99305063 6.11676357,7.97916667 C6.11676357,8.59028083 6.27826066,9.11805333 6.60125969,9.5625 C6.92425872,10.0069467 7.36837573,10.3888873 7.93362403,10.7083333 C8.49887234,11.0277794 9.07084121,11.2777769 9.6495478,11.4583333 C10.2282544,11.6388898 11.1837789,11.902776 12.5161499,12.25 C14.1849782,12.6527798 15.6956489,13.0972198 17.0482074,13.5833333 C18.4007658,14.0694469 19.5514326,14.6597188 20.5002422,15.3541667 C21.4490519,16.0486146 22.1892469,16.927078 22.7208495,17.9895833 C23.2524521,19.0520886 23.5182494,20.354159 23.5182494,21.8958333 C23.5182494,23.7430648 23.0573097,25.4027704 22.1354167,26.875 Z M29.7157623,12 L33.3091085,24.7083333 L36.5794574,12.8958333 C36.929373,11.659716 37.1884412,10.8159745 37.3566699,10.3645833 C37.5248986,9.91319219 37.8411637,9.48264094 38.3054748,9.07291667 C38.7697859,8.6631924 39.4056807,8.45833333 40.2131783,8.45833333 C41.0341342,8.45833333 41.676758,8.6631924 42.1410691,9.07291667 C42.6053802,9.48264094 42.9317389,9.92708094 43.120155,10.40625 C43.3085711,10.8854191 43.5710039,11.7152719 43.9074612,12.8958333 L47.1778101,24.7083333 L50.811531,12 C51.0537803,11.0833287 51.2489226,10.4201409 51.3969638,10.0104167 C51.545005,9.6006924 51.7939797,9.2395849 52.1438953,8.92708333 C52.493811,8.61458177 52.9984894,8.45833333 53.6579457,8.45833333 C54.3174021,8.45833333 54.889371,8.69444208 55.3738695,9.16666667 C55.8583681,9.63889125 56.1006137,10.1944412 56.1006137,10.8333333 C56.1006137,11.4166696 55.8920133,12.2986052 55.4748062,13.4791667 L50.9730297,27.1041667 C50.5827392,28.2569502 50.2799322,29.0902752 50.0645995,29.6041667 C49.8492668,30.1180581 49.50945,30.5763869 49.0451389,30.9791667 C48.5808278,31.3819465 47.944933,31.5833333 47.1374354,31.5833333 C46.3030212,31.5833333 45.6469393,31.3680577 45.1691699,30.9375 C44.6914005,30.5069423 44.3381256,29.9791698 44.1093346,29.3541667 C43.8805436,28.7291635 43.631569,27.9166717 43.3624031,26.9166667 L40.2131783,15.8333333 L37.1648902,26.9166667 C36.7611414,28.458341 36.3237534,29.6215239 35.8527132,30.40625 C35.3816729,31.1909761 34.5540003,31.5833333 33.3696705,31.5833333 C32.7640474,31.5833333 32.2492754,31.4618068 31.8253391,31.21875 C31.4014029,30.9756932 31.048128,30.6284745 30.7655039,30.1770833 C30.4828797,29.7256922 30.233905,29.1909753 30.0185724,28.5729167 C29.8032397,27.954858 29.6350135,27.4652796 29.5138889,27.1041667 L25.0524871,13.4791667 C24.6083634,12.2013825 24.3863049,11.3194469 24.3863049,10.8333333 C24.3863049,10.2222192 24.6218215,9.67361354 25.0928618,9.1875 C25.563902,8.70138646 26.1425999,8.45833333 26.8289729,8.45833333 C27.7441368,8.45833333 28.363209,8.72569177 28.686208,9.26041667 C29.009207,9.79514156 29.3523884,10.7083269 29.7157623,12 Z M88.4609173,12.3333333 C89.4972059,11.0138823 90.5738532,10.045142 91.6908915,9.42708333 C92.8079298,8.80902469 94.0729904,8.5 95.4861111,8.5 C97.181856,8.5 98.7429946,8.95138437 100.169574,9.85416667 C101.596153,10.756949 102.723268,12.0763802 103.550953,13.8125 C104.378638,15.5486198 104.792474,17.6041548 104.792474,19.9791667 C104.792474,21.7291754 104.553593,23.3367982 104.075824,24.8020833 C103.598054,26.2673684 102.941972,27.4965228 102.107558,28.4895833 C101.273144,29.4826439 100.287339,30.2465251 99.150113,30.78125 C98.0128873,31.3159749 96.7915655,31.5833333 95.4861111,31.5833333 C93.9114908,31.5833333 92.5892334,31.2569477 91.5192991,30.6041667 C90.4493648,29.9513856 89.4299144,28.9930619 88.4609173,27.7291667 L88.4609173,36.2708333 C88.4609173,38.7708458 87.5794123,40.0208333 85.816376,40.0208333 C84.7800874,40.0208333 84.0937248,39.6979199 83.7572674,39.0520833 C83.4208101,38.4062468 83.252584,37.465284 83.252584,36.2291667 L83.252584,11.6875 C83.252584,10.6041612 83.4813715,9.79514156 83.9389535,9.26041667 C84.3965354,8.72569177 85.0223367,8.45833333 85.816376,8.45833333 C86.596957,8.45833333 87.2328518,8.73263615 87.7240795,9.28125 C88.2153072,9.82986385 88.4609173,10.6180504 88.4609173,11.6458333 L88.4609173,12.3333333 Z M73.7443475,12.3333333 C72.708059,11.0138823 71.6314117,10.045142 70.5143734,9.42708333 C69.3973351,8.80902469 68.1322745,8.5 66.7191537,8.5 C65.0234088,8.5 63.4622703,8.95138438 62.0356912,9.85416667 C60.6091122,10.756949 59.481997,12.0763802 58.654312,13.8125 C57.826627,15.5486198 57.4127907,17.6041548 57.4127907,19.9791667 C57.4127907,21.7291754 57.6516718,23.3367982 58.1294412,24.8020833 C58.6072106,26.2673684 59.2632926,27.4965228 60.0977067,28.4895833 C60.9321209,29.4826439 61.9179261,30.2465251 63.0551518,30.78125 C64.1923776,31.3159749 65.4136993,31.5833333 66.7191537,31.5833333 C68.293774,31.5833333 69.6160315,31.2569477 70.6859658,30.6041667 C71.7559001,29.9513856 72.7753505,28.9930619 73.7443475,27.7291667 L73.7443475,28.0041667 C73.7443475,30.5041792 75.2718473,31.7541667 77.0348837,31.7541667 C78.0711723,31.7541667 78.7575349,31.4312532 79.0939922,30.7854167 C79.4304496,30.1395801 78.9526809,29.1986173 78.9526809,27.9625 L78.9526809,11.6875 C78.9526809,10.6041613 78.7238933,9.79514156 78.2663114,9.26041667 C77.8087294,8.72569177 77.1829282,8.45833333 76.3888889,8.45833333 C75.6083079,8.45833333 74.9724131,8.73263615 74.4811854,9.28125 C73.9899577,9.82986385 73.7443475,10.6180504 73.7443475,11.6458333 L73.7443475,12.3333333 Z M99.2611434,19.9166667 C99.2611434,18.4166592 99.0390849,17.1284776 98.5949612,16.0520833 C98.1508376,14.9756891 97.5351299,14.1493084 96.7478198,13.5729167 C95.9605096,12.9965249 95.0890982,12.7083333 94.1335594,12.7083333 C92.6127723,12.7083333 91.3308892,13.3263827 90.2878714,14.5625 C89.2448537,15.7986173 88.7233527,17.6180435 88.7233527,20.0208333 C88.7233527,22.2847335 89.2414892,24.0451326 90.2777778,25.3020833 C91.3140663,26.5590341 92.599314,27.1875 94.1335594,27.1875 C95.0487234,27.1875 95.8965831,26.9131972 96.6771641,26.3645833 C97.4577451,25.8159695 98.0835463,24.993061 98.5545866,23.8958333 C99.0256268,22.7986056 99.2611434,21.47223 99.2611434,19.9166667 Z M62.8835594,19.9166667 C62.8835594,18.4166592 63.1056179,17.1284776 63.5497416,16.0520833 C63.9938653,14.9756891 64.6095729,14.1493084 65.3968831,13.5729167 C66.1841932,12.9965249 67.0556046,12.7083333 68.0111434,12.7083333 C69.5319305,12.7083333 70.8138137,13.3263827 71.8568314,14.5625 C72.8998491,15.7986173 73.4213501,17.6180435 73.4213501,20.0208333 C73.4213501,22.2847335 72.9032136,24.0451326 71.8669251,25.3020833 C70.8306365,26.5590341 69.5453888,27.1875 68.0111434,27.1875 C67.0959795,27.1875 66.2481198,26.9131972 65.4675388,26.3645833 C64.6869578,25.8159695 64.0611565,24.993061 63.5901163,23.8958333 C63.119076,22.7986056 62.8835594,21.47223 62.8835594,19.9166667 Z M108.062823,24.1458333 C108.062823,25.7152856 108.432921,27.0590222 109.173127,28.1770833 C109.913333,29.2951445 111.006803,30.1423582 112.453569,30.71875 C113.900336,31.2951418 115.659981,31.5833333 117.732558,31.5833333 C119.710927,31.5833333 121.406647,31.2708365 122.819767,30.6458333 C124.232888,30.0208302 125.27589,29.239588 125.948805,28.3020833 C126.62172,27.3645786 126.958172,26.4236158 126.958172,25.4791667 C126.958172,24.8541635 126.742842,24.3194467 126.312177,23.875 C125.881512,23.4305533 125.336459,23.2083333 124.677003,23.2083333 C124.098296,23.2083333 123.654179,23.3541652 123.344638,23.6458333 C123.035098,23.9375015 122.73902,24.3472196 122.456395,24.875 C121.891147,25.888894 121.214878,26.6458308 120.427568,27.1458333 C119.640258,27.6458358 118.566975,27.8958333 117.207687,27.8958333 C116.104107,27.8958333 115.199051,27.6423636 114.49249,27.1354167 C113.78593,26.6284697 113.432655,26.0486144 113.432655,25.3958333 C113.432655,24.3958283 113.799388,23.666669 114.532865,23.2083333 C115.266342,22.7499977 116.474206,22.3125021 118.156492,21.8958333 C120.054112,21.4097198 121.598428,20.8993082 122.789486,20.3645833 C123.980545,19.8298584 124.932705,19.1250044 125.645995,18.25 C126.359284,17.3749956 126.715924,16.2986175 126.715924,15.0208333 C126.715924,13.8819387 126.386201,12.8055606 125.726744,11.7916667 C125.067288,10.7777727 124.094941,9.96875302 122.809674,9.36458333 C121.524407,8.76041365 119.973362,8.45833333 118.156492,8.45833333 C116.729913,8.45833333 115.44803,8.61110958 114.310804,8.91666667 C113.173579,9.22222375 112.224783,9.63194187 111.46439,10.1458333 C110.703996,10.6597248 110.125298,11.2291635 109.728278,11.8541667 C109.331259,12.4791698 109.132752,13.0902748 109.132752,13.6875 C109.132752,14.340281 109.344717,14.8749979 109.768653,15.2916667 C110.192589,15.7083354 110.794839,15.9166667 111.57542,15.9166667 C112.140668,15.9166667 112.621795,15.7500017 113.018815,15.4166667 C113.415834,15.0833317 113.870045,14.5833367 114.38146,13.9166667 C114.798667,13.3611083 115.289887,12.9166683 115.855136,12.5833333 C116.420384,12.2499983 117.187495,12.0833333 118.156492,12.0833333 C119.152406,12.0833333 119.980079,12.3020811 120.639535,12.7395833 C121.298991,13.1770855 121.628714,13.722219 121.628714,14.375 C121.628714,14.9722252 121.386469,15.4618036 120.90197,15.84375 C120.417472,16.2256964 119.764754,16.5416654 118.943798,16.7916667 C118.122843,17.0416679 116.992363,17.3472204 115.552326,17.7083333 C113.843122,18.138891 112.446845,18.6527748 111.363453,19.25 C110.28006,19.8472252 109.459117,20.5520793 108.900598,21.3645833 C108.342078,22.1770874 108.062823,23.1041615 108.062823,24.1458333 L108.062823,24.1458333 Z M136.708656,32.2916667 L137.21334,31.0208333 L130.430394,13.3958333 C130.013187,12.3819394 129.804587,11.6458356 129.804587,11.1875 C129.804587,10.7013865 129.925709,10.2500021 130.167959,9.83333333 C130.410208,9.41666458 130.743296,9.08333458 131.167232,8.83333333 C131.591168,8.58333208 132.031921,8.45833333 132.489503,8.45833333 C133.283542,8.45833333 133.882427,8.7187474 134.286176,9.23958333 C134.689924,9.76041927 135.046564,10.5069396 135.356105,11.4791667 L140.01938,25.4791667 L144.440407,12.4583333 C144.790323,11.4027725 145.106588,10.5763919 145.389212,9.97916667 C145.671836,9.38194146 145.971279,8.97916771 146.287548,8.77083333 C146.603818,8.56249896 147.0513,8.45833333 147.630006,8.45833333 C148.047214,8.45833333 148.447592,8.57291552 148.831153,8.80208333 C149.214714,9.03125115 149.510792,9.34027583 149.719396,9.72916667 C149.928,10.1180575 150.0323,10.5277756 150.0323,10.9583333 C149.978467,11.2222235 149.890989,11.5972198 149.769864,12.0833333 C149.64874,12.5694469 149.500701,13.0624975 149.325743,13.5625 L142.13905,32.9791667 C141.519969,34.6875085 140.914355,36.0277729 140.32219,37 C139.730025,37.9722271 138.946091,38.7187474 137.970365,39.2395833 C136.994639,39.7604193 135.67911,40.0208333 134.02374,40.0208333 C132.408745,40.0208333 131.197517,39.8402796 130.390019,39.4791667 C129.582522,39.1180537 129.178779,38.4583381 129.178779,37.5 C129.178779,36.847219 129.370557,36.3437518 129.754118,35.9895833 C130.13768,35.6354149 130.706284,35.4583333 131.459948,35.4583333 C131.756031,35.4583333 132.04538,35.4999996 132.328004,35.5833333 C132.677919,35.6666671 132.980727,35.7083333 133.236434,35.7083333 C133.868974,35.7083333 134.366923,35.6111121 134.730297,35.4166667 C135.093671,35.2222212 135.42003,34.8854191 135.709383,34.40625 C135.998736,33.9270809 136.331824,33.2222269 136.708656,32.2916667 L136.708656,32.2916667 Z" id="Swapsy-5" sketch:type="MSShapeGroup"></path>
        </g>
    </g>
</svg>